<svg id="Camada_1" data-name="Camada 1" xmlns="http://www.w3.org/2000/svg" xmlns:xlink="http://www.w3.org/1999/xlink" viewBox="0 0 2596 979.71"><defs><style>.cls-1{fill:url(#Gradiente_sem_nome);}.cls-2{fill:#85da56;}.cls-3{fill:#2bae5e;}.cls-4{fill:#ffc857;}.cls-5{fill:#fff;}</style><linearGradient id="Gradiente_sem_nome" x1="-44.49" y1="118.23" x2="2624.59" y2="572.87" gradientTransform="matrix(1, 0, 0, -1, 0, 836.76)" gradientUnits="userSpaceOnUse"><stop offset="0" stop-color="#2bae5e"/><stop offset="1" stop-color="#85da56"/></linearGradient></defs><rect class="cls-1" width="2596" height="979.71"/><path class="cls-2" d="M1744.13,329.56c148.54,0,269-120.42,269-269s-120.42-269-269-269-269,120.42-269,269S1595.58,329.56,1744.13,329.56Z" transform="translate(0 422.76)"/><path class="cls-3" d="M2008.61,54c1.43,0,2.87-.09,4.3-.14-3.54-145.49-122.49-262.33-268.78-262.33-1.43,0-2.87.05-4.3.09C1743.32-62.88,1862.31,54,2008.61,54Z" transform="translate(0 422.76)"/><path class="cls-3" d="M1624.38-180.3A270,270,0,0,0,1499-50.15a267.38,267.38,0,0,1,106.35-23.71c0-2.2-.18-4.4-.18-6.64A267.33,267.33,0,0,1,1624.38-180.3Z" transform="translate(0 422.76)"/><path class="cls-3" d="M1878.63,195a267.44,267.44,0,0,1-23.85,110.65A269.88,269.88,0,0,0,1993.9,160.35a267.44,267.44,0,0,1-115.45,28.07C1878.5,190.57,1878.63,192.77,1878.63,195Z" transform="translate(0 422.76)"/><path class="cls-4" d="M1609.62-73.95c-1.43,0-2.86.09-4.3.13,3.54,145.49,122.49,262.33,268.78,262.33,1.44,0,2.87,0,4.31-.09C1874.91,42.89,1756-73.95,1609.62-73.95Z" transform="translate(0 422.76)"/><path class="cls-3" d="M2012.91,53.87c-1.43.05-2.87.14-4.3.14-146.34,0-265.29-116.89-268.78-262.38a267.37,267.37,0,0,0-115.45,28.07,267.33,267.33,0,0,0-19.19,99.8c0,2.24.13,4.44.18,6.64,1.43,0,2.87-.14,4.3-.14C1756-74,1875,42.89,1878.45,188.37a267.43,267.43,0,0,0,115.45-28.06,267.53,267.53,0,0,0,19.19-99.8C2013.09,58.26,2013,56.07,2012.91,53.87Z" transform="translate(0 422.76)"/><path class="cls-5" d="M173.46,4.85q15.28,0,25.87,5.21a36.32,36.32,0,0,1,16.13,14.45q5.53,9.24,5.54,22a52.62,52.62,0,0,1-2.35,15.29,38.78,38.78,0,0,1-7.23,13.77,34.91,34.91,0,0,1-13.27,10.08q-8.24,3.7-20.33,3.7H160.35V128.5H136V4.85Zm4.19,60.82a20.65,20.65,0,0,0,9.25-1.85A16.55,16.55,0,0,0,192.61,59a18.92,18.92,0,0,0,3-6.22,18.82,18.82,0,0,0,1-5.54,24.11,24.11,0,0,0-.67-4.87,18.63,18.63,0,0,0-2.35-6.39,14.83,14.83,0,0,0-5.72-5.37q-3.69-2.19-10.08-2.19H160.35v37.3Zm87,17.14a20.19,20.19,0,0,0,3.52,11.25,27.74,27.74,0,0,0,9.24,8.74,25.31,25.31,0,0,0,12.77,3.36,26.6,26.6,0,0,0,13.44-3.36,25.65,25.65,0,0,0,9.24-8.74,20.2,20.2,0,0,0,3.53-11.25v-78h24V83.31a44.15,44.15,0,0,1-6.72,24.19A47.71,47.71,0,0,1,315.54,124,57.3,57.3,0,0,1,265,124a48.1,48.1,0,0,1-18-16.47,44.15,44.15,0,0,1-6.72-24.19V4.85h24.36Zm141.43-78q19.32,0,30.74,7.9,11.43,7.72,11.43,23.18,0,11.43-5.72,19.16a33.92,33.92,0,0,1-15.28,11.42,61,61,0,0,1-22,3.7L401.36,57.1a80.2,80.2,0,0,1,27.05,4.2q11.93,4.2,18.82,12.1a27.06,27.06,0,0,1,6.89,18.65q0,10.08-3.7,17.13a30.58,30.58,0,0,1-9.74,11.26,42.93,42.93,0,0,1-13.78,6.21,67.94,67.94,0,0,1-16,1.85H369.78V4.85Zm2.85,50.57q7.23,0,10.59-4.37A15.35,15.35,0,0,0,423,41.14c0-4.25-1.46-7.45-4.37-9.57s-6.61-3.2-11.43-3.2h-13.1V55.42Zm.84,50.4a33.26,33.26,0,0,0,9.75-1.34,15.19,15.19,0,0,0,6.89-4.54,12.35,12.35,0,0,0,2.52-7.89q0-5.39-3-8.07A15.9,15.9,0,0,0,418,80.12a40.48,40.48,0,0,0-9.92-1.18H394.14v26.88Zm68.79-101h24.36V105H561V128.5H478.55Zm107.63,0h24.36V128.5H586.18Zm149,113.4a46.44,46.44,0,0,1-7.56,4.54,66.7,66.7,0,0,1-13.27,5,61.36,61.36,0,0,1-17.48,2,71.4,71.4,0,0,1-26.2-5.21A59.18,59.18,0,0,1,651.19,111a60,60,0,0,1-12.1-19.66,66.26,66.26,0,0,1-4.2-23.68,76.48,76.48,0,0,1,4.2-25.88,60.74,60.74,0,0,1,12.27-20.32A56,56,0,0,1,670.51,8.21,62.29,62.29,0,0,1,695,3.51a66.3,66.3,0,0,1,22,3.36,76.3,76.3,0,0,1,15.63,7.22l-9.58,23a65.15,65.15,0,0,0-11.25-6.55,34.61,34.61,0,0,0-16-3.53,32.2,32.2,0,0,0-13.61,3,35.38,35.38,0,0,0-11.43,8.24,41.81,41.81,0,0,0-10.58,28.05,50.26,50.26,0,0,0,2.52,16.3,38.21,38.21,0,0,0,7.56,12.77,33.73,33.73,0,0,0,11.59,8.06,40.1,40.1,0,0,0,15.46,2.86,41,41,0,0,0,17-3.2,38.51,38.51,0,0,0,10.75-6.72Zm10.46,10.25L801.42,0h1.35L858.54,128.5H830.32L794.71,38.12,812.34,26,769.67,128.5Zm38.13-44.69h37.13l8.57,20.5H776.22ZM914,4.85a65.14,65.14,0,0,1,20.67,3,39.61,39.61,0,0,1,15.12,8.4,34.38,34.38,0,0,1,9.4,13.1,43.65,43.65,0,0,1,3.2,17.14,50.91,50.91,0,0,1-2.35,15.12,37.35,37.35,0,0,1-7.4,13.77,36.51,36.51,0,0,1-13.44,10.08q-8.4,3.7-20.83,3.7H900.93V128.5H876.57V4.85Zm4.2,60.82a20.57,20.57,0,0,0,9.24-1.85,15,15,0,0,0,5.71-4.7,17.38,17.38,0,0,0,3-5.88,19.73,19.73,0,0,0,1-5.88,23.9,23.9,0,0,0-.68-5,18.43,18.43,0,0,0-2.35-6.39,14.72,14.72,0,0,0-5.71-5.37q-3.69-2.19-10.08-2.19H900.93v37.3Zm22.85,15.12,30.58,47.71H943.27L912,81.46Zm216,52.75-93.75-84.67,7.23,4,.5,75.6h-24.7V0h1l91.73,84.34L1133.73,82l-.5-77.12h24.53V133.54Zm25-66.69a61,61,0,0,1,4.87-24.2,64.89,64.89,0,0,1,33.6-34.1,61.8,61.8,0,0,1,48.89,0,64.41,64.41,0,0,1,20.16,13.94,62.23,62.23,0,0,1,13.78,20.16,59.3,59.3,0,0,1,5,24.2,60,60,0,0,1-5,24.52,62,62,0,0,1-13.78,20.16A64.48,64.48,0,0,1,1269.4,125a63.66,63.66,0,0,1-48.89,0,64.71,64.71,0,0,1-20.16-13.44,64.83,64.83,0,0,1-13.44-20.16A61.79,61.79,0,0,1,1182,66.85Zm25.2,0a41.51,41.51,0,0,0,2.86,15.45,42.74,42.74,0,0,0,8.23,12.6,39.63,39.63,0,0,0,12.26,8.4,38.36,38.36,0,0,0,15.29,3,35.17,35.17,0,0,0,14.62-3,35.81,35.81,0,0,0,11.92-8.4,40.81,40.81,0,0,0,10.76-28.05,40,40,0,0,0-3-15.63,38,38,0,0,0-8.06-12.6,35.07,35.07,0,0,0-11.93-8.57,37.08,37.08,0,0,0-42,8.57,38,38,0,0,0-8.06,12.6A42,42,0,0,0,1207.24,66.85Zm135.7-62,36.12,89L1365,91l32.76-86.19h28.9l-56.45,129.36L1313.71,4.85Zm89.13,62a61.19,61.19,0,0,1,4.87-24.2,64.89,64.89,0,0,1,33.6-34.1,61.8,61.8,0,0,1,48.89,0,64.41,64.41,0,0,1,20.16,13.94,62.23,62.23,0,0,1,13.78,20.16,59.3,59.3,0,0,1,5,24.2,60,60,0,0,1-5,24.52,62,62,0,0,1-13.78,20.16A64.48,64.48,0,0,1,1519.43,125a63.66,63.66,0,0,1-48.89,0,64.71,64.71,0,0,1-20.16-13.44,64.83,64.83,0,0,1-13.44-20.16A62,62,0,0,1,1432.07,66.85Zm25.2,0a41.51,41.51,0,0,0,2.86,15.45,42.74,42.74,0,0,0,8.23,12.6,39.63,39.63,0,0,0,12.26,8.4,38.36,38.36,0,0,0,15.29,3,35.14,35.14,0,0,0,14.62-3,35.85,35.85,0,0,0,11.93-8.4,40.86,40.86,0,0,0,10.75-28.05,40,40,0,0,0-3-15.63,38,38,0,0,0-8.06-12.6,35.07,35.07,0,0,0-11.93-8.57,37.08,37.08,0,0,0-42,8.57,38,38,0,0,0-8.06,12.6A42,42,0,0,0,1457.27,66.85Zm217.52-62q15.29,0,25.87,5.21a36.21,36.21,0,0,1,16.13,14.45q5.55,9.24,5.55,22A52.31,52.31,0,0,1,1720,61.81a38.59,38.59,0,0,1-7.22,13.77,35,35,0,0,1-13.27,10.08q-8.23,3.7-20.33,3.7h-17.47V128.5h-24.36V4.85Zm4.2,60.82a20.57,20.57,0,0,0,9.24-1.85,16.37,16.37,0,0,0,5.71-4.87,18.75,18.75,0,0,0,3-6.22,18.82,18.82,0,0,0,1-5.54,23.54,23.54,0,0,0-.68-4.87,18.43,18.43,0,0,0-2.35-6.39,14.72,14.72,0,0,0-5.71-5.37q-3.69-2.19-10.08-2.19h-17.47v37.3ZM1781.6,4.85a65.12,65.12,0,0,1,20.66,3,39.46,39.46,0,0,1,15.12,8.4,34.51,34.51,0,0,1,9.41,13.1A43.65,43.65,0,0,1,1830,46.52a50.59,50.59,0,0,1-2.35,15.12,37.47,37.47,0,0,1-7.39,13.77,36.51,36.51,0,0,1-13.44,10.08q-8.4,3.7-20.84,3.7h-17.47V128.5h-24.36V4.85Zm4.2,60.82a20.63,20.63,0,0,0,9.24-1.85,15.11,15.11,0,0,0,5.71-4.7,17.53,17.53,0,0,0,3-5.88,19.73,19.73,0,0,0,1-5.88,23.8,23.8,0,0,0-.67-5,18.63,18.63,0,0,0-2.35-6.39,14.83,14.83,0,0,0-5.72-5.37q-3.69-2.19-10.08-2.19h-17.47v37.3Zm22.84,15.12,30.58,47.71h-28.39l-31.25-47Zm38.84-13.94a61,61,0,0,1,4.87-24.2,65.06,65.06,0,0,1,13.44-20.16A64.41,64.41,0,0,1,1886,8.55a61.8,61.8,0,0,1,48.89,0A64.64,64.64,0,0,1,1955,22.49a62.21,62.21,0,0,1,13.77,20.16,59.3,59.3,0,0,1,5,24.2,60,60,0,0,1-5,24.52A62,62,0,0,1,1955,111.53,64.71,64.71,0,0,1,1934.84,125a63.66,63.66,0,0,1-48.89,0,61.77,61.77,0,0,1-33.6-33.6A61.79,61.79,0,0,1,1847.48,66.85Zm25.2,0a41.71,41.71,0,0,0,2.85,15.45,42.77,42.77,0,0,0,8.24,12.6,39.63,39.63,0,0,0,12.26,8.4,38.32,38.32,0,0,0,15.29,3,35.13,35.13,0,0,0,14.61-3,35.75,35.75,0,0,0,11.93-8.4,40.74,40.74,0,0,0,10.75-28.05,40,40,0,0,0-3-15.63,38,38,0,0,0-8.06-12.6,35.07,35.07,0,0,0-11.93-8.57,37.06,37.06,0,0,0-42,8.57,38.22,38.22,0,0,0-8.07,12.6A42.24,42.24,0,0,0,1872.68,66.85ZM1998.1,128.5V4.85h37q18.64,0,31.75,5.55t21,14.78a58.44,58.44,0,0,1,11.76,20.67,74.12,74.12,0,0,1,3.7,23,59.45,59.45,0,0,1-5,24.87,56.69,56.69,0,0,1-13.44,18.81A61.23,61.23,0,0,1,2065,124.47a70.1,70.1,0,0,1-23.85,4ZM2022.46,105h14.45a56.33,56.33,0,0,0,16.8-2.35,37.3,37.3,0,0,0,12.93-7.22,29.8,29.8,0,0,0,8.4-11.76,42.28,42.28,0,0,0,3-16.47q0-12.09-4-19.65a31.67,31.67,0,0,0-9.75-11.93,33.5,33.5,0,0,0-11.76-5.71,39.45,39.45,0,0,0-10.25-1.68h-19.82Zm127.09-22.17a20.2,20.2,0,0,0,3.53,11.25,27.55,27.55,0,0,0,9.24,8.74,25.28,25.28,0,0,0,12.77,3.36,26.6,26.6,0,0,0,13.44-3.36,25.65,25.65,0,0,0,9.24-8.74,20.19,20.19,0,0,0,3.52-11.25v-78h24V83.31a44.15,44.15,0,0,1-6.72,24.19A47.74,47.74,0,0,1,2200.45,124a57.28,57.28,0,0,1-50.56,0,48.05,48.05,0,0,1-18-16.47,44.15,44.15,0,0,1-6.72-24.19V4.85h24.36Zm96.74-78h83.33V28.37h-30.07V128.5h-24.36V28.37h-28.9Zm95,62a61,61,0,0,1,4.87-24.2,65.06,65.06,0,0,1,13.44-20.16,64.41,64.41,0,0,1,20.16-13.94,61.8,61.8,0,0,1,48.89,0,64.64,64.64,0,0,1,20.16,13.94,62.36,62.36,0,0,1,13.77,20.16,59.3,59.3,0,0,1,5,24.2,60,60,0,0,1-5,24.52,62.15,62.15,0,0,1-13.77,20.16A64.71,64.71,0,0,1,2428.67,125a63.66,63.66,0,0,1-48.89,0,61.77,61.77,0,0,1-33.6-33.6A61.79,61.79,0,0,1,2341.31,66.85Zm25.2,0a41.71,41.71,0,0,0,2.85,15.45,42.94,42.94,0,0,0,8.23,12.6,39.79,39.79,0,0,0,12.27,8.4,38.32,38.32,0,0,0,15.29,3,35.13,35.13,0,0,0,14.61-3,35.85,35.85,0,0,0,11.93-8.4,40.74,40.74,0,0,0,10.75-28.05,40.2,40.2,0,0,0-3-15.63,38.06,38.06,0,0,0-8.07-12.6,35,35,0,0,0-11.92-8.57,37.06,37.06,0,0,0-42,8.57,38.06,38.06,0,0,0-8.07,12.6A42.24,42.24,0,0,0,2366.51,66.85Z" transform="translate(0 422.76)"/></svg>