<svg width="546" height="97" viewBox="0 0 546 97" fill="none" xmlns="http://www.w3.org/2000/svg">
<path d="M64.0985 1.35457C59.8826 1.5309 31.325 -1.41864 19.4627 15.8378C0.947927 42.7683 0.0342132 90.2736 0.0342132 90.2736C-0.150133 91.7483 0.402902 92.4857 1.87767 92.4857H18.4448C19.7352 92.4857 20.4726 91.9327 20.6569 90.6422C20.6569 90.6422 22.1638 77.3132 24.3198 62.2129C30.3712 19.8773 48.9421 20.214 61.3413 19.7651C62.6318 19.7651 63.3692 19.2121 63.5535 17.9217L65.95 3.55871C66.1183 2.09195 65.3809 1.35457 64.0985 1.35457Z" fill="#2BAE5E"/>
<path d="M122.456 1.35461C85.8193 1.35461 72.7548 34.1202 72.7548 57.8688C72.7548 80.5113 85.8273 94.5056 109.945 94.5056C116.573 94.5056 122.095 93.5838 128.355 91.9247L137.372 89.7126C138.663 89.5282 139.216 88.7908 139.031 87.5004L137.741 73.3218C137.556 71.847 136.819 71.294 135.344 71.6627L126.872 73.8748C121.35 75.1652 116.749 75.9026 110.49 75.9026C98.8918 75.9026 93.1851 69.6429 93.0008 60.0729L122.64 55.841C147.126 52.162 154.124 40.1956 154.124 26.2013C154.116 10.7402 142.333 1.35461 122.456 1.35461ZM120.797 40.3799L94.1069 44.2432C98.7075 27.3074 108.646 19.7572 121.35 19.7572C129.638 19.7572 134.238 23.2517 134.238 28.9585C134.23 34.1202 130.736 38.9051 120.797 40.3799Z" fill="#2BAE5E"/>
<path d="M223.702 1.3546C220.328 1.3546 193.461 0.240501 182.842 17.4568C167.204 42.8004 164.054 90.2736 164.054 90.2736C163.87 91.7484 164.423 92.4858 165.898 92.4858H182.465C183.755 92.4858 184.493 91.9327 184.677 90.6423C184.677 90.6423 187.162 54.1257 194.712 39.0253C201.42 25.6081 213.387 19.7652 219.102 19.7652C228.487 19.7652 232.912 26.0249 230.884 37.6227L222.051 90.2736C221.867 91.7484 222.42 92.4858 223.895 92.4858H240.462C241.752 92.4858 242.49 91.9327 242.674 90.6423L251.691 36.8853C255.546 15.1645 245.239 1.3546 223.702 1.3546Z" fill="#2BAE5E"/>
<path d="M429.497 48.1545C421.393 62.5094 413.114 78.3472 407.96 90.1293C407.407 91.0511 406.67 91.6041 405.564 91.6041H385.686C384.58 91.6041 383.843 91.051 383.659 89.7606C382.184 78.1628 379.611 62.5174 376.477 48.1545L365.432 4.52854C365.064 3.23812 365.801 2.31641 367.276 2.31641H384.212C385.502 2.31641 386.239 2.86943 386.424 3.9755L394.527 34.7213C396.739 45.5817 398.022 56.8107 398.022 65.0983C398.206 67.1261 400.234 67.1261 400.971 65.0983C403.736 56.8107 409.074 45.3973 414.965 34.7213L433.376 3.60682C433.929 2.68509 434.666 2.31641 435.772 2.31641H453.63C455.289 2.31641 455.842 3.42248 454.92 4.7129L429.497 48.1545Z" fill="#85DA56"/>
<path d="M486.668 93.6239C466.783 93.6239 455.009 80.92 455.009 59.5679C455.009 34.8976 469.363 0.4729 508.028 0.4729C514.657 0.4729 520.179 1.2103 527.545 3.2381L544.481 7.65438C545.771 8.02307 546.14 8.94482 545.955 10.0509C545.955 10.0509 535.496 55.2077 532.803 78.9323C531.817 87.5885 523.633 91.8766 520.403 91.8766C520.395 91.8686 499.556 93.6239 486.668 93.6239ZM518.52 20.7189C514.841 19.4285 512.076 18.8755 507.106 18.8755C484.28 18.8755 475.263 43.7301 475.263 57.9008C475.263 68.5768 480.969 75.0209 490.355 75.0209C505.447 75.0209 517.414 56.426 522.014 31.2106L523.489 22.1937L518.52 20.7189Z" fill="#85DA56"/>
<path d="M312.116 96.1806C338.671 96.1806 360.199 74.6534 360.199 48.0983C360.199 21.5432 338.671 0.0159912 312.116 0.0159912C285.561 0.0159912 264.034 21.5432 264.034 48.0983C264.034 74.6534 285.561 96.1806 312.116 96.1806Z" fill="#85DA56"/>
<path d="M359.397 46.9201C359.654 46.9201 359.91 46.9041 360.167 46.8961C359.533 20.8872 338.269 0 312.116 0C311.86 0 311.603 0.00800625 311.347 0.0160213C311.972 26.0249 333.244 46.9201 359.397 46.9201Z" fill="#2BAE5E"/>
<path d="M290.708 5.03345C280.818 9.96271 272.867 18.2022 268.298 28.3011C274.109 25.6722 280.537 24.1654 287.31 24.0612C287.302 23.6684 287.278 23.2757 287.278 22.875C287.278 16.5671 288.496 10.5478 290.708 5.03345Z" fill="#2BAE5E"/>
<path d="M336.161 72.1275C336.161 79.1808 334.631 85.8733 331.897 91.9087C343.183 86.8031 352.152 77.4736 356.768 65.9319C350.54 69.0417 343.535 70.8291 336.129 70.9493C336.137 71.334 336.161 71.7268 336.161 72.1275Z" fill="#2BAE5E"/>
<path d="M288.071 24.0452C287.815 24.0452 287.558 24.0612 287.302 24.0692C287.935 50.0781 309.199 70.9653 335.352 70.9653C335.608 70.9653 335.865 70.9573 336.121 70.9492C335.496 44.9324 314.232 24.0452 288.071 24.0452Z" fill="#FFC857"/>
<path d="M360.166 46.8961C359.91 46.9041 359.654 46.9201 359.397 46.9201C333.236 46.9201 311.972 26.0248 311.347 0.0159912C303.933 0.136217 296.936 1.92358 290.708 5.03342C288.496 10.5478 287.278 16.5671 287.278 22.8749C287.278 23.2757 287.302 23.6684 287.31 24.0612C287.566 24.0531 287.823 24.0371 288.079 24.0371C314.24 24.0371 335.504 44.9324 336.129 70.9412C343.543 70.821 350.54 69.0336 356.768 65.9238C358.98 60.4094 360.199 54.3901 360.199 48.0823C360.199 47.6815 360.183 47.2888 360.166 46.8961Z" fill="#2BAE5E"/>
</svg>
