<svg width="88" height="92" viewBox="0 0 88 92" fill="none" xmlns="http://www.w3.org/2000/svg">
<g filter="url(#filter0_d_11_45)">
<path d="M37.4933 0C35.4975 0 33.7914 1.41081 33.408 3.36914L32.0164 10.5143C28.5966 11.8075 25.4344 13.6142 22.6577 15.8936L15.8055 13.5335C13.918 12.8835 11.8413 13.664 10.8413 15.389L4.55875 26.2777C3.56291 28.0068 3.92535 30.2021 5.42951 31.5104L10.9227 36.2874C10.637 38.0431 10.4507 39.8303 10.4507 41.6667C10.4507 43.503 10.637 45.2903 10.9227 47.0459L5.42951 51.8229C3.92535 53.1312 3.56291 55.3265 4.55875 57.0557L10.8413 67.9443C11.8371 69.6735 13.918 70.4538 15.8055 69.8079L22.6577 67.4479C25.4335 69.7259 28.5981 71.5264 32.0164 72.819L33.408 79.9642C33.7914 81.9225 35.4975 83.3333 37.4933 83.3333H50.0747C52.0705 83.3333 53.7766 81.9225 54.16 79.9642L55.5516 72.819C58.9714 71.5258 62.1336 69.7191 64.9103 67.4398L71.7625 69.7998C73.65 70.4498 75.7267 69.6735 76.7267 67.9443L83.0093 57.0475C84.0051 55.3184 83.6427 53.1312 82.1385 51.8229L76.6453 47.0459C76.931 45.2903 77.1173 43.503 77.1173 41.6667C77.1173 39.8303 76.931 38.0431 76.6453 36.2874L82.1385 31.5104C83.6427 30.2021 84.0051 28.0068 83.0093 26.2777L76.7267 15.389C75.7309 13.6598 73.65 12.8796 71.7625 13.5254L64.9103 15.8854C62.1345 13.6075 58.9699 11.8069 55.5516 10.5143L54.16 3.36914C53.7766 1.41081 52.0705 0 50.0747 0H37.4933ZM43.784 25C52.9882 25 60.4507 32.4625 60.4507 41.6667C60.4507 50.8708 52.9882 58.3333 43.784 58.3333C34.5798 58.3333 27.1173 50.8708 27.1173 41.6667C27.1173 32.4625 34.5798 25 43.784 25Z" fill="white"/>
</g>
<defs>
<filter id="filter0_d_11_45" x="0" y="0" width="87.568" height="91.3334" filterUnits="userSpaceOnUse" color-interpolation-filters="sRGB">
<feFlood flood-opacity="0" result="BackgroundImageFix"/>
<feColorMatrix in="SourceAlpha" type="matrix" values="0 0 0 0 0 0 0 0 0 0 0 0 0 0 0 0 0 0 127 0" result="hardAlpha"/>
<feOffset dy="4"/>
<feGaussianBlur stdDeviation="2"/>
<feComposite in2="hardAlpha" operator="out"/>
<feColorMatrix type="matrix" values="0 0 0 0 0 0 0 0 0 0 0 0 0 0 0 0 0 0 0.25 0"/>
<feBlend mode="normal" in2="BackgroundImageFix" result="effect1_dropShadow_11_45"/>
<feBlend mode="normal" in="SourceGraphic" in2="effect1_dropShadow_11_45" result="shape"/>
</filter>
</defs>
</svg>
